PathFileType	4	(X/Y/Z)	/Users/niels/Desktop/University/Third Semester/Perception and Action/Exam/Gymnastics Motion Tracking/Code for Gym Tracking/Analyzed Data/Webcam_Backflip/id2_5_baseline_Sports2D/id2_5_baseline_Sports2D_px_person00.trc
DataRate	CameraRate	NumFrames	NumMarkers	Units	OrigDataRate	OrigDataStartFrame	OrigNumFrames
29.875	29.875	6	22	m	29.875	0	240
Frame#	Time	Hip			RHip			RKnee			RAnkle			RBigToe			RSmallToe			RHeel			LHip			LKnee			LAnkle			LBigToe			LSmallToe			LHeel			Neck			Head			Nose			RShoulder			RElbow			RWrist			LShoulder			LElbow			LWrist		
		X1	Y1	Z1	X2	Y2	Z2	X3	Y3	Z3	X4	Y4	Z4	X5	Y5	Z5	X6	Y6	Z6	X7	Y7	Z7	X8	Y8	Z8	X9	Y9	Z9	X10	Y10	Z10	X11	Y11	Z11	X12	Y12	Z12	X13	Y13	Z13	X14	Y14	Z14	X15	Y15	Z15	X16	Y16	Z16	X17	Y17	Z17	X18	Y18	Z18	X19	Y19	Z19	X20	Y20	Z20	X21	Y21	Z21	X22	Y22	Z22
0	0.0	0.9613359952136084	-0.5605298543713687	0.0	0.9634252097051516	-0.5605286753014854	0.0	0.9613361728953187	-0.6710637228900085	0.0	0.9321377488421274	-0.7961983108516381	0.0	0.9634193160052364	-0.8149670614170024	0.0	0.9529929965771975	-0.8212255228697297	0.0	0.9217140798719136	-0.8149671445193722	0.0	0.9634240179507058	-0.5584392460024824	0.0	0.9655012554894178	-0.6710637436580844	0.0	0.9383931854785678	-0.787856775155051	0.0	0.9738518944751162	-0.8107939211204714	0.0	0.9696804330520732	-0.8045389684066564	0.0	0.9217072266622273	-0.8003758560406559	0.0	0.9655068484792045	-0.4020242168015603	0.0	0.9884506399766475	-0.32485586040595105	0.0	0.99053487988334	-0.3665748649308223	0.0	0.9550764544300211	-0.40619639876603975	0.0	0.9571660001638057	-0.3248574832614912	0.0	0.9613372771261194	-0.2560348474655697	0.0	0.9613368539133894	-0.40828015376698906	0.0	0.9655036020175723	-0.33528543449771464	0.0	0.9634228151855274	-0.26646102283499284	0.0
1	0.03347280334728033	0.9610123461346295	-0.5607362886467508	0.0	0.9629595513629814	-0.5605648618701161	0.0	0.96100466607451	-0.672111060465605	0.0	0.931927697294558	-0.7963605278854543	0.0	0.9639340225417801	-0.8154051954051214	0.0	0.953296675998927	-0.8213437411977224	0.0	0.9214658848247468	-0.8143557402115876	0.0	0.9639372517573028	-0.5589564445074626	0.0	0.9651486237846708	-0.6718952269860654	0.0	0.9386105705699137	-0.7878060972729594	0.0	0.9750094739296641	-0.8101018265178871	0.0	0.9710453963429458	-0.8041852429559341	0.0	0.9222910012199229	-0.8005028329539321	0.0	0.9648162453597214	-0.40246849617295194	0.0	0.987612224317657	-0.3254950673646559	0.0	0.9896896039972314	-0.3664428025949508	0.0	0.9542305255693618	-0.4064524434035067	0.0	0.9568569397285591	-0.32502744806677614	0.0	0.961648726238088	-0.2561693898686538	0.0	0.9612451441970837	-0.4089766496067593	0.0	0.9655637308954998	-0.33526786806631065	0.0	0.9639909864566644	-0.26716313146276627	0.0
2	0.06694560669456066	0.9607320308344839	-0.5608011517154502	0.0	0.9625299580007389	-0.5605523609884779	0.0	0.9606949537863718	-0.6729428500643095	0.0	0.9317186021216574	-0.7964189135958478	0.0	0.9643189991287306	-0.815694048543145	0.0	0.9534916303691504	-0.8214063444505234	0.0	0.9211632139115741	-0.8138755273240559	0.0	0.9643590139874771	-0.5593483579680338	0.0	0.9648372443706859	-0.6725378357058648	0.0	0.9387472433627096	-0.7876490074023138	0.0	0.9760000018885006	-0.8095045649773124	0.0	0.9722044354482194	-0.8038416932751705	0.0	0.9226950023798928	-0.8005369127875769	0.0	0.9641892679114105	-0.4027650012403397	0.0	0.9870318465083383	-0.32610519682328426	0.0	0.9890907582999127	-0.3664174304559788	0.0	0.9535142354207033	-0.4066546749027634	0.0	0.9565853227370573	-0.32526514208180174	0.0	0.9619308163510666	-0.25635040689729566	0.0	0.9611368881810453	-0.4095370469144095	0.0	0.9654753161173543	-0.33531079554524484	0.0	0.9645026408698826	-0.2677189016017674	0.0
3	0.10041841004184099	0.9605063059190333	-0.560703905989848	0.0	0.9621561362569871	-0.560473963044267	0.0	0.9604039827236011	-0.6734414949292642	0.0	0.9314976597625989	-0.7963395797941424	0.0	0.9645039597930481	-0.8158003378150797	0.0	0.953467427586354	-0.8213974100202702	0.0	0.9207635971447125	-0.8135934753301096	0.0	0.9646481685880637	-0.5595853240001905	0.0	0.9645834806698678	-0.6729135474577856	0.0	0.9387491601107677	-0.787374224845067	0.0	0.9767094889455817	-0.8090536270536915	0.0	0.9729949906606994	-0.8035439372771452	0.0	0.9228438932148388	-0.8004489070426064	0.0	0.9636923263474748	-0.4028994620805443	0.0	0.9867715275669223	-0.32663877984755013	0.0	0.9887869192199098	-0.36654046970187243	0.0	0.9529804869092167	-0.40679249971560183	0.0	0.9563605783366631	-0.32557706473701226	0.0	0.9621317986807093	-0.25654231642688796	0.0	0.9610410138053764	-0.40993081132286874	0.0	0.9652102418251273	-0.3354344730905006	0.0	0.9649468175864006	-0.2680320834545229	0.0
4	0.13389121338912133	0.9603207207093358	-0.5605150369867319	0.0	0.9618566144651505	-0.5603482118565629	0.0	0.9601126926121721	-0.6735911822256352	0.0	0.9312462899323075	-0.7961518291075372	0.0	0.9644887411862709	-0.8157523206093961	0.0	0.9531818936659662	-0.8213253602565594	0.0	0.9202654352358884	-0.8134930786271124	0.0	0.9648207007370873	-0.5597110311863668	0.0	0.9643826890800233	-0.6730204835404854	0.0	0.9386492787017688	-0.7870294032892153	0.0	0.9771143897338244	-0.808740734141354	0.0	0.9733843079462244	-0.8032953769193482	0.0	0.9227885032379031	-0.8002741515109415	0.0	0.9633647223728229	-0.40293742353860007	0.0	0.9867166880817996	-0.3270644445969421	0.0	0.9886536434555657	-0.3667792261226873	0.0	0.9526200252985149	-0.40687884643807065	0.0	0.9561694600762524	-0.3258926014016862	0.0	0.9622255982742681	-0.25665050375631365	0.0	0.9609837247370525	-0.41019797949596115	0.0	0.9648550169473961	-0.33560945669929365	0.0	0.9653386030641573	-0.2681059353670097	0.0
5	0.16736401673640167	0.9601597479163685	-0.5603110250034247	0.0	0.9616283646587237	-0.5602136300795553	0.0	0.9598225604544101	-0.6734594004435617	0.0	0.930963156718059	-0.7958957915599023	0.0	0.9643173933619504	-0.8155785822945206	0.0	0.9527206241149038	-0.8211837599235341	0.0	0.9197378646353473	-0.8135077421456698	0.0	0.9649040075300037	-0.5597692109949398	0.0	0.9642380913446599	-0.6728892643579701	0.0	0.93854697284079	-0.7866556821704968	0.0	0.9772567185296477	-0.8085145890931753	0.0	0.973476521816125	-0.8030559635486327	0.0	0.9226574025456996	-0.8000613017256525	0.0	0.9631726197965346	-0.40291503538074214	0.0	0.9867303708149217	-0.32737448396623436	0.0	0.9885563165245305	-0.36703999402618903	0.0	0.9523937758478251	-0.40691316143020034	0.0	0.9560002359955978	-0.3261141444907582	0.0	0.9622532808198991	-0.2565917581679656	0.0	0.9609414143398822	-0.41036508993521925	0.0	0.9645199926430046	-0.3357683959455868	0.0	0.965668927384526	-0.2680160478337078	0.0
